# Blender v2.75 (sub 0) OBJ File: ''
# www.blender.org
mtllib Fire Medallion.mtl
o firemedal_geom-0261F82A
v 0.121300 0.212600 0.022500
v -0.000100 0.126500 0.054600
v 0.070100 0.122800 0.087900
v -0.168900 0.146000 0.033700
v -0.117100 0.112000 0.085500
v -0.009600 0.185900 0.042500
v -0.236300 0.039000 0.029400
v -0.224100 -0.076600 0.026200
v -0.176000 0.028400 0.096400
v -0.164600 -0.063800 0.094300
v -0.104800 -0.183700 0.036300
v -0.080300 -0.140700 0.099200
v -0.025900 -0.045400 0.133600
v -0.073000 0.074900 0.057700
v 0.025500 0.044700 0.120900
v 0.109000 0.064300 0.054600
v 0.211600 -0.071100 0.033700
v 0.165000 0.086300 0.042500
v 0.156000 -0.043800 0.085500
v 0.153800 -0.183600 0.029400
v 0.114000 -0.137100 0.096400
v 0.048000 -0.231900 0.026200
v 0.028800 -0.174100 0.094300
v 0.101600 -0.024700 0.057700
v 0.102000 0.035600 -0.077900
v 0.000000 -0.141000 -0.077900
v 0.102000 0.035600 -0.058000
v 0.000000 -0.141000 -0.058000
v 0.000000 -0.141000 -0.077900
v 0.204000 -0.141000 -0.077900
v 0.000000 -0.141000 -0.058000
v 0.204000 -0.141000 -0.058000
v 0.204000 -0.141000 -0.077900
v 0.102000 0.035600 -0.077900
v 0.204000 -0.141000 -0.058000
v 0.102000 0.035600 -0.058000
v 0.102000 0.035600 -0.077900
v 0.204000 -0.141000 -0.077900
v 0.000000 -0.141000 -0.077900
v 0.000000 0.212300 -0.077900
v -0.102000 0.035600 -0.077900
v 0.000000 0.212300 -0.058000
v -0.102000 0.035600 -0.058000
v -0.102000 0.035600 -0.077900
v 0.102000 0.035600 -0.077900
v -0.102000 0.035600 -0.058000
v 0.102000 0.035600 -0.058000
v 0.000000 0.212300 -0.077900
v 0.000000 0.212300 -0.058000
v 0.000000 0.212300 -0.077900
v 0.102000 0.035600 -0.077900
v -0.102000 0.035600 -0.077900
v -0.204000 -0.141000 -0.077900
v -0.204000 -0.141000 -0.058000
v -0.204000 -0.141000 -0.077900
v -0.204000 -0.141000 -0.058000
v 0.000000 -0.141000 -0.077900
v -0.102000 0.035600 -0.077900
v 0.000000 -0.141000 -0.058000
v -0.102000 0.035600 -0.058000
v -0.102000 0.035600 -0.077900
v -0.204000 -0.141000 -0.077900
v 0.000000 -0.305800 0.049500
v -0.152900 -0.264800 0.049500
v 0.000000 -0.389500 0.048900
v -0.194700 -0.337300 0.048900
v -0.264800 -0.152900 0.049500
v -0.337300 -0.194700 0.048900
v -0.264800 -0.152900 0.049500
v -0.305800 -0.000000 0.049500
v -0.337300 -0.194700 0.048900
v -0.389500 -0.000000 0.048900
v -0.264800 0.152900 0.049500
v -0.337300 0.194700 0.048900
v -0.152900 0.264800 0.049500
v -0.194700 0.337300 0.048900
v -0.264800 0.152900 0.049500
v -0.337300 0.194700 0.048900
v 0.000000 0.305800 0.049500
v 0.000000 0.389500 0.048900
v 0.000000 -0.305800 0.049500
v 0.000000 -0.270300 0.015600
v -0.152900 -0.264800 0.049500
v -0.135200 -0.234100 0.015600
v -0.264800 -0.152900 0.049500
v -0.234100 -0.135200 0.015600
v -0.305800 -0.000000 0.049500
v -0.270300 -0.000000 0.015600
v -0.264800 0.152900 0.049500
v -0.234100 0.135200 0.015600
v -0.152900 0.264800 0.049500
v -0.135200 0.234100 0.015600
v 0.000000 0.305800 0.049500
v 0.000000 0.270300 0.015600
v 0.000000 -0.270300 0.015600
v 0.000000 -0.000000 0.082800
v -0.135200 -0.234100 0.015600
v -0.234100 -0.135200 0.015600
v -0.270300 -0.000000 0.015600
v -0.234100 0.135200 0.015600
v -0.135200 0.234100 0.015600
v 0.000000 0.270300 0.015600
v 0.194700 -0.337300 0.048900
v 0.152900 -0.264800 0.049500
v 0.337300 -0.194700 0.048900
v 0.264800 -0.152900 0.049500
v 0.389500 -0.000000 0.048900
v 0.305800 -0.000000 0.049500
v 0.337300 -0.194700 0.048900
v 0.264800 -0.152900 0.049500
v 0.264800 0.152900 0.049500
v 0.337300 0.194700 0.048900
v 0.152900 0.264800 0.049500
v 0.264800 0.152900 0.049500
v 0.194700 0.337300 0.048900
v 0.337300 0.194700 0.048900
v 0.152900 -0.264800 0.049500
v 0.135200 -0.234100 0.015600
v 0.264800 -0.152900 0.049500
v 0.234100 -0.135200 0.015600
v 0.305800 -0.000000 0.049500
v 0.270300 -0.000000 0.015600
v 0.264800 0.152900 0.049500
v 0.234100 0.135200 0.015600
v 0.152900 0.264800 0.049500
v 0.135200 0.234100 0.015600
v 0.135200 -0.234100 0.015600
v 0.234100 -0.135200 0.015600
v 0.270300 -0.000000 0.015600
v 0.234100 0.135200 0.015600
v 0.135200 0.234100 0.015600
v 0.194700 0.337300 0.048900
v 0.337300 0.194700 0.048900
v 0.194700 0.337300 -0.062600
v 0.337300 0.194700 -0.062600
v 0.000000 0.389500 0.048900
v 0.000000 0.389500 -0.062600
v 0.194700 -0.337300 0.048900
v 0.000000 -0.389500 0.048900
v 0.194700 -0.337300 -0.062600
v 0.000000 -0.389500 -0.062600
v 0.337300 -0.194700 0.048900
v 0.337300 -0.194700 -0.062600
v 0.389500 -0.000000 0.048900
v 0.389500 0.000000 -0.062600
v -0.152900 -0.264800 -0.062600
v 0.000000 -0.305800 -0.062600
v -0.194700 -0.337300 -0.062600
v 0.000000 -0.389500 -0.062600
v -0.264800 -0.152900 -0.062600
v -0.337300 -0.194700 -0.062600
v -0.305800 0.000000 -0.062600
v -0.264800 -0.152900 -0.062600
v -0.389500 0.000000 -0.062600
v -0.337300 -0.194700 -0.062600
v -0.264800 0.152900 -0.062600
v -0.337300 0.194700 -0.062600
v -0.152900 0.264800 -0.062600
v -0.264800 0.152900 -0.062600
v -0.194700 0.337300 -0.062600
v -0.337300 0.194700 -0.062600
v 0.000000 0.305800 -0.062600
v 0.000000 0.389500 -0.062600
v -0.194700 0.337300 0.048900
v -0.194700 0.337300 -0.062600
v -0.337300 0.194700 0.048900
v -0.337300 0.194700 -0.062600
v -0.194700 -0.337300 0.048900
v -0.194700 -0.337300 -0.062600
v -0.337300 -0.194700 0.048900
v -0.337300 -0.194700 -0.062600
v -0.389500 -0.000000 0.048900
v -0.389500 0.000000 -0.062600
v 0.152900 -0.264800 -0.062600
v 0.194700 -0.337300 -0.062600
v 0.264800 -0.152900 -0.062600
v 0.337300 -0.194700 -0.062600
v 0.305800 0.000000 -0.062600
v 0.389500 0.000000 -0.062600
v 0.264800 -0.152900 -0.062600
v 0.337300 -0.194700 -0.062600
v 0.264800 0.152900 -0.062600
v 0.337300 0.194700 -0.062600
v 0.152900 0.264800 -0.062600
v 0.194700 0.337300 -0.062600
v 0.264800 0.152900 -0.062600
v 0.337300 0.194700 -0.062600
v 0.000000 -0.305800 -0.058000
v -0.152900 -0.264800 -0.058000
v 0.000000 0.305800 -0.058000
v 0.152900 0.264800 -0.058000
v 0.264800 0.152900 -0.058000
v 0.264800 -0.152900 -0.058000
v -0.264800 -0.152900 -0.058000
v -0.152900 0.264800 -0.058000
v -0.264800 0.152900 -0.058000
v -0.305800 0.000000 -0.058000
v 0.152900 -0.264800 -0.058000
v 0.305800 0.000000 -0.058000
v -0.305800 0.000000 -0.062600
v 0.000000 -0.000000 0.048900
v -0.264800 -0.152900 -0.062600
v 0.152900 -0.264800 -0.062600
v 0.264800 -0.152900 -0.062600
v -0.264800 0.152900 -0.062600
v 0.264800 0.152900 -0.062600
v 0.152900 0.264800 -0.062600
v 0.305800 0.000000 -0.062600
v -0.152900 -0.264800 -0.062600
v 0.000000 -0.305800 -0.062600
v -0.152900 0.264800 -0.062600
v 0.000000 0.305800 -0.062600
vt 0.970000 0.780000
vt 0.910000 0.560000
vt 0.970000 0.530000
vt 0.970000 0.410000
vt 0.880000 0.440000
vt 0.780000 0.280000
vt 0.780000 0.440000
vt 0.840000 0.560000
vt 0.690000 0.440000
vt 0.690000 0.250000
vt 0.780000 0.060000
vt 0.840000 0.190000
vt 0.970000 0.030000
vt 0.970000 0.160000
vt 0.970000 0.280000
vt 0.440000 0.190000
vt 0.440000 0.060000
vt 0.500000 0.130000
vt 0.500000 0.190000
vt 0.500000 0.030000
vt 0.440000 0.250000
vt 0.500000 0.380000
vt 0.500000 0.160000
vt 0.500000 0.250000
vt 0.030000 0.970000
vt 0.030000 0.470000
vt 0.310000 0.970000
vt 0.310000 0.470000
vt 0.030000 0.030000
vt 0.310000 0.030000
vt 0.380000 0.970000
vt 0.380000 0.470000
vt 0.660000 0.970000
vt 0.660000 0.470000
vt 0.380000 0.030000
vt 0.380000 0.060000
vt 0.380000 0.130000
vt 0.380000 0.220000
vt 0.380000 0.280000
vt 0.380000 0.380000
vt 0.560000 0.030000
vt 0.560000 0.190000
vt 0.560000 0.090000
vt 0.560000 0.310000
vt 0.560000 0.380000
vt 0.440000 0.380000
vt 0.440000 0.280000
vt 0.440000 0.220000
vt 0.440000 0.130000
vt 0.440000 0.030000
vt 0.630000 0.030000
vt 0.630000 0.060000
vt 0.630000 0.380000
vt 0.630000 0.340000
vt 0.630000 0.130000
vt 0.630000 0.280000
vt 0.630000 0.190000
vn -0.290700 0.666000 0.686900
vn 0.721400 0.088800 0.686800
vn 0.625600 -0.027800 0.779700
vn -0.342100 0.524700 0.779500
vn -0.339200 0.526000 0.779900
vn -0.136200 0.794400 0.591900
vn 0.414800 -0.175900 0.892700
vn 0.445800 -0.133400 0.885200
vn -0.213900 0.704700 0.676500
vn -0.477200 0.435700 0.763200
vn -0.654400 0.386100 0.650100
vn -0.747400 -0.097100 0.657300
vn -0.738800 -0.106500 0.665500
vn -0.562600 -0.570200 0.598700
vn -0.555100 -0.569900 0.605800
vn -0.207900 -0.767900 0.605900
vn -0.204500 -0.774000 0.599300
vn 0.283400 -0.690300 0.665800
vn 0.296500 -0.693000 0.657100
vn 0.665600 -0.366800 0.650000
vn 0.618100 -0.189100 0.763100
vn -0.362400 0.267400 0.892800
vn -0.341300 0.316200 0.885200
vn 0.715700 0.174100 0.676400
vn -0.241700 -0.204500 0.948600
vn -0.053000 -0.312200 0.948600
vn 0.087700 -0.256600 0.962500
vn 0.252300 -0.007600 0.967600
vn -0.134900 0.213400 0.967600
vn -0.265500 -0.054700 0.962600
vn 0.753200 0.286900 0.591900
vn 0.625200 -0.024800 0.780100
vn -0.865900 0.500100 0.000000
vn -0.000000 -1.000000 -0.000000
vn 0.865900 0.500100 0.000000
vn 0.866100 0.499900 0.000000
vn 0.000000 0.000000 -1.000000
vn -0.866100 0.499900 0.000000
vn -0.001900 -0.007200 1.000000
vn 0.001900 -0.007200 1.000000
vn 0.005200 -0.005200 1.000000
vn -0.005200 -0.005200 1.000000
vn -0.007200 -0.001900 1.000000
vn -0.007200 0.001900 1.000000
vn -0.005200 0.005200 1.000000
vn -0.001900 0.007200 1.000000
vn 0.001900 0.007200 1.000000
vn 0.005200 0.005200 1.000000
vn 0.182100 0.679100 0.711100
vn -0.182100 0.679100 0.711100
vn -0.182000 0.679700 0.710600
vn -0.497600 0.497600 0.710500
vn -0.679600 0.182200 0.710600
vn -0.679100 0.181800 0.711200
vn -0.679100 -0.182100 0.711100
vn -0.679700 -0.182000 0.710600
vn -0.497600 -0.497600 0.710500
vn -0.182200 -0.679600 0.710600
vn -0.181800 -0.679100 0.711200
vn 0.181800 -0.679100 0.711200
vn 0.182200 -0.679600 0.710600
vn 0.497600 -0.497600 0.710500
vn 0.679700 -0.182000 0.710600
vn 0.679100 -0.182100 0.711100
vn 0.679100 0.181800 0.711200
vn 0.679600 0.182200 0.710600
vn 0.497600 0.497600 0.710500
vn 0.182000 0.679700 0.710600
vn -0.064500 -0.240800 0.968400
vn 0.064500 -0.240800 0.968400
vn 0.176200 -0.176200 0.968400
vn 0.240800 -0.064500 0.968400
vn 0.240800 0.064500 0.968400
vn 0.176200 0.176200 0.968400
vn 0.064500 0.240800 0.968400
vn -0.064500 0.240800 0.968400
vn -0.176200 0.176200 0.968400
vn -0.240800 0.064500 0.968400
vn -0.240800 -0.064500 0.968400
vn -0.176200 -0.176200 0.968400
vn 0.007200 -0.001900 1.000000
vn 0.007200 0.001900 1.000000
vn 0.707100 0.707100 0.000000
vn 0.259000 0.965900 0.000000
vn -0.259000 0.965900 0.000000
vn -0.707100 0.707100 0.000000
vn -0.965900 0.259000 0.000000
vn -0.965900 -0.259000 -0.000000
vn -0.707100 -0.707100 -0.000000
vn -0.259000 -0.965900 -0.000000
vn 0.259000 -0.965900 -0.000000
vn 0.707100 -0.707100 -0.000000
vn 0.965900 -0.259000 -0.000000
vn 0.965900 0.259000 0.000000
vn 0.341100 0.091500 -0.935600
vn 0.341100 -0.091500 -0.935600
vn 0.249700 -0.249700 -0.935600
vn 0.091500 -0.341100 -0.935600
vn -0.091500 -0.341100 -0.935600
vn -0.249700 -0.249700 -0.935600
vn -0.341100 -0.091500 -0.935600
vn -0.341100 0.091500 -0.935600
vn -0.249700 0.249700 -0.935600
vn -0.091500 0.341100 -0.935600
vn 0.091500 0.341100 -0.935600
vn 0.249700 0.249700 -0.935600
usemtl material-00B58D5A
s off
f 1/1/1 2/2/1 3/3/1
f 3/3/2 16/2/2 1/1/2
f 15/4/3 16/2/3 3/3/3
f 2/2/4 15/4/4 3/3/4
f 14/5/5 15/4/5 2/2/5
f 9/6/6 15/4/6 14/5/6
f 5/7/7 9/6/7 14/5/7
f 5/7/8 14/5/8 6/8/8
f 4/9/9 5/7/9 6/8/9
f 9/6/10 5/7/10 4/9/10
f 7/10/11 9/6/11 4/9/11
f 7/10/12 8/11/12 9/6/12
f 8/11/13 10/12/13 9/6/13
f 8/11/14 11/13/14 10/12/14
f 11/13/15 12/14/15 10/12/15
f 11/13/16 23/12/16 12/14/16
f 22/11/17 23/12/17 11/13/17
f 22/11/18 21/6/18 23/12/18
f 20/10/19 21/6/19 22/11/19
f 20/10/20 17/9/20 21/6/20
f 21/6/21 17/9/21 19/7/21
f 19/7/22 24/5/22 21/6/22
f 19/7/23 18/8/23 24/5/23
f 17/9/24 18/8/24 19/7/24
f 12/14/25 13/15/25 10/12/25
f 12/14/26 23/12/26 13/15/26
f 13/15/27 23/12/27 21/6/27
f 13/15/28 21/6/28 15/4/28
f 13/15/29 15/4/29 9/6/29
f 13/15/30 9/6/30 10/12/30
f 15/4/31 21/6/31 24/5/31
f 24/5/32 16/2/32 15/4/32
f 25/16/33 26/16/33 27/16/33
f 27/16/33 26/16/33 28/16/33
f 29/17/34 30/17/34 31/17/34
f 56/17/34 29/17/34 31/17/34
f 55/17/34 29/17/34 56/17/34
f 31/17/34 30/17/34 32/17/34
f 33/18/35 34/18/35 35/18/35
f 35/18/35 34/18/35 36/18/35
f 34/18/36 48/18/36 36/18/36
f 36/18/36 48/18/36 49/18/36
f 37/19/37 38/20/37 39/20/37
f 61/19/37 39/20/37 62/20/37
f 40/21/38 41/21/38 42/21/38
f 42/21/38 41/21/38 43/21/38
f 41/21/33 53/21/33 43/21/33
f 43/21/33 53/21/33 54/21/33
f 44/17/34 45/17/34 46/17/34
f 46/17/34 45/17/34 47/17/34
f 50/22/37 51/23/37 52/23/37
f 57/24/35 58/24/35 59/24/35
f 59/24/35 58/24/35 60/24/35
f 63/25/39 64/26/39 65/27/39
f 65/27/40 104/26/40 63/25/40
f 103/28/40 104/26/40 65/27/40
f 103/28/41 106/29/41 104/26/41
f 105/30/41 106/29/41 103/28/41
f 65/27/39 64/26/39 66/28/39
f 64/26/42 67/29/42 66/28/42
f 66/28/42 67/29/42 68/30/42
f 69/31/43 70/32/43 71/33/43
f 71/33/43 70/32/43 72/34/43
f 70/32/44 74/33/44 72/34/44
f 73/31/44 74/33/44 70/32/44
f 75/26/45 76/28/45 77/29/45
f 75/26/46 80/27/46 76/28/46
f 79/25/46 80/27/46 75/26/46
f 79/25/47 113/26/47 80/27/47
f 80/27/47 113/26/47 115/28/47
f 113/26/48 114/29/48 115/28/48
f 115/28/48 114/29/48 116/30/48
f 77/29/45 76/28/45 78/30/45
f 81/35/49 82/36/49 83/36/49
f 81/35/50 117/36/50 82/36/50
f 82/36/51 117/36/51 118/36/51
f 117/36/52 119/37/52 118/36/52
f 118/36/52 119/37/52 120/37/52
f 119/37/53 121/38/53 120/37/53
f 120/37/54 121/38/54 122/38/54
f 121/38/55 123/39/55 122/38/55
f 122/38/56 123/39/56 124/39/56
f 123/39/57 125/40/57 124/39/57
f 124/39/57 125/40/57 126/40/57
f 125/40/58 93/40/58 126/40/58
f 126/40/59 93/40/59 94/40/59
f 93/40/60 92/40/60 94/40/60
f 91/40/61 92/40/61 93/40/61
f 91/40/62 90/39/62 92/40/62
f 89/39/62 90/39/62 91/40/62
f 89/39/63 88/38/63 90/39/63
f 87/38/64 88/38/64 89/39/64
f 87/38/65 86/37/65 88/38/65
f 85/37/66 86/37/66 87/38/66
f 85/37/67 84/36/67 86/37/67
f 83/36/67 84/36/67 85/37/67
f 83/36/68 82/36/68 84/36/68
f 95/41/69 96/42/69 97/41/69
f 95/41/70 127/41/70 96/42/70
f 127/41/71 128/43/71 96/42/71
f 128/43/72 129/42/72 96/42/72
f 129/42/73 130/44/73 96/42/73
f 130/44/74 131/45/74 96/42/74
f 131/45/75 102/45/75 96/42/75
f 101/45/76 96/42/76 102/45/76
f 100/44/77 96/42/77 101/45/77
f 99/42/78 96/42/78 100/44/78
f 98/43/79 96/42/79 99/42/79
f 97/41/80 96/42/80 98/43/80
f 107/34/81 108/32/81 109/33/81
f 112/33/82 108/32/82 107/34/82
f 111/31/82 108/32/82 112/33/82
f 109/33/81 108/32/81 110/31/81
f 132/46/83 133/47/83 134/46/83
f 137/46/84 132/46/84 134/46/84
f 136/46/84 132/46/84 137/46/84
f 136/46/85 137/46/85 164/46/85
f 164/46/85 137/46/85 165/46/85
f 164/46/86 165/46/86 166/47/86
f 166/47/86 165/46/86 167/47/86
f 166/47/87 167/47/87 172/48/87
f 172/48/87 167/47/87 173/48/87
f 172/48/88 173/48/88 170/49/88
f 170/49/88 173/48/88 171/49/88
f 170/49/89 171/49/89 168/17/89
f 168/17/89 171/49/89 169/17/89
f 168/17/90 169/17/90 139/50/90
f 139/50/90 169/17/90 141/50/90
f 140/17/91 139/50/91 141/50/91
f 138/17/91 139/50/91 140/17/91
f 143/49/92 138/17/92 140/17/92
f 142/49/92 138/17/92 143/49/92
f 145/48/93 142/49/93 143/49/93
f 144/48/93 142/49/93 145/48/93
f 135/47/94 144/48/94 145/48/94
f 133/47/94 144/48/94 135/47/94
f 134/46/83 133/47/83 135/47/83
f 146/26/37 147/25/37 148/28/37
f 151/30/37 146/26/37 148/28/37
f 150/29/37 146/26/37 151/30/37
f 148/28/37 147/25/37 149/27/37
f 147/25/37 175/28/37 149/27/37
f 174/26/37 175/28/37 147/25/37
f 174/26/37 177/30/37 175/28/37
f 176/29/37 177/30/37 174/26/37
f 152/32/37 153/31/37 154/34/37
f 157/33/37 152/32/37 154/34/37
f 156/31/37 152/32/37 157/33/37
f 154/34/37 153/31/37 155/33/37
f 158/26/37 159/29/37 160/28/37
f 163/27/37 158/26/37 160/28/37
f 162/25/37 158/26/37 163/27/37
f 162/25/37 163/27/37 184/26/37
f 184/26/37 163/27/37 185/28/37
f 184/26/37 185/28/37 186/29/37
f 186/29/37 185/28/37 187/30/37
f 160/28/37 159/29/37 161/30/37
f 178/32/37 179/34/37 180/31/37
f 178/32/37 183/33/37 179/34/37
f 182/31/37 183/33/37 178/32/37
f 180/31/37 179/34/37 181/33/37
f 188/51/37 189/52/37 190/53/37
f 198/52/37 188/51/37 190/53/37
f 191/54/37 198/52/37 190/53/37
f 191/54/37 193/55/37 198/52/37
f 191/54/37 192/56/37 193/55/37
f 192/56/37 199/57/37 193/55/37
f 189/52/37 194/55/37 195/54/37
f 189/52/37 195/54/37 190/53/37
f 194/55/37 196/56/37 195/54/37
f 194/55/37 197/57/37 196/56/37
f 200/43/95 201/41/95 202/43/95
f 205/43/96 201/41/96 200/43/96
f 205/43/97 211/43/97 201/41/97
f 201/41/98 211/43/98 212/43/98
f 207/43/99 201/41/99 212/43/99
f 206/43/100 201/41/100 207/43/100
f 208/43/101 201/41/101 206/43/101
f 204/43/102 201/41/102 208/43/102
f 203/43/103 201/41/103 204/43/103
f 210/43/104 201/41/104 203/43/104
f 209/43/105 201/41/105 210/43/105
f 202/43/106 201/41/106 209/43/106
