# Blender v2.75 (sub 0) OBJ File: ''
# www.blender.org
mtllib Shadow Medallion.mtl
o shadowmedal_geom-03770028
v 0.102000 0.035600 -0.107000
v 0.000000 -0.141000 -0.107000
v 0.102000 0.035600 -0.087100
v 0.000000 -0.141000 -0.087100
v 0.000000 -0.141000 -0.107000
v 0.204000 -0.141000 -0.107000
v 0.000000 -0.141000 -0.087100
v 0.204000 -0.141000 -0.087100
v 0.204000 -0.141000 -0.107000
v 0.102000 0.035600 -0.107000
v 0.204000 -0.141000 -0.087100
v 0.102000 0.035600 -0.087100
v 0.102000 0.035600 -0.107000
v 0.204000 -0.141000 -0.107000
v 0.000000 -0.141000 -0.107000
v 0.000000 0.212300 -0.107000
v -0.102000 0.035600 -0.107000
v 0.000000 0.212300 -0.087100
v -0.102000 0.035600 -0.087100
v -0.102000 0.035600 -0.107000
v 0.102000 0.035600 -0.107000
v -0.102000 0.035600 -0.087100
v 0.102000 0.035600 -0.087100
v 0.000000 0.212300 -0.107000
v 0.000000 0.212300 -0.087100
v 0.000000 0.212300 -0.107000
v 0.102000 0.035600 -0.107000
v -0.102000 0.035600 -0.107000
v -0.204000 -0.141000 -0.107000
v -0.204000 -0.141000 -0.087100
v -0.204000 -0.141000 -0.107000
v -0.204000 -0.141000 -0.087100
v 0.000000 -0.141000 -0.107000
v -0.102000 0.035600 -0.107000
v 0.000000 -0.141000 -0.087100
v -0.102000 0.035600 -0.087100
v -0.102000 0.035600 -0.107000
v -0.204000 -0.141000 -0.107000
v 0.000000 -0.305800 0.020400
v -0.152900 -0.264800 0.020400
v 0.000000 -0.389500 0.019800
v -0.194700 -0.337300 0.019800
v -0.264800 -0.152900 0.020400
v -0.337300 -0.194700 0.019800
v -0.264800 -0.152900 0.020400
v -0.305800 -0.000000 0.020400
v -0.337300 -0.194700 0.019800
v -0.389500 -0.000000 0.019800
v -0.264800 0.152900 0.020400
v -0.337300 0.194700 0.019800
v -0.152900 0.264800 0.020400
v -0.194700 0.337300 0.019800
v -0.264800 0.152900 0.020400
v -0.337300 0.194700 0.019800
v 0.000000 0.305800 0.020400
v 0.000000 0.389500 0.019800
v 0.000000 -0.305800 0.020400
v 0.000000 -0.270300 -0.013500
v -0.152900 -0.264800 0.020400
v -0.135200 -0.234100 -0.013500
v -0.264800 -0.152900 0.020400
v -0.234100 -0.135200 -0.013500
v -0.305800 -0.000000 0.020400
v -0.270300 0.000000 -0.013500
v -0.264800 0.152900 0.020400
v -0.234100 0.135200 -0.013500
v -0.152900 0.264800 0.020400
v -0.135200 0.234100 -0.013500
v 0.000000 0.305800 0.020400
v 0.000000 0.270300 -0.013500
v 0.000000 -0.270300 -0.013500
v 0.000000 -0.000000 0.053700
v -0.135200 -0.234100 -0.013500
v -0.234100 -0.135200 -0.013500
v -0.270300 0.000000 -0.013500
v -0.234100 0.135200 -0.013500
v -0.135200 0.234100 -0.013500
v 0.000000 0.270300 -0.013500
v 0.194700 -0.337300 0.019800
v 0.152900 -0.264800 0.020400
v 0.337300 -0.194700 0.019800
v 0.264800 -0.152900 0.020400
v 0.389500 -0.000000 0.019800
v 0.305800 -0.000000 0.020400
v 0.337300 -0.194700 0.019800
v 0.264800 -0.152900 0.020400
v 0.264800 0.152900 0.020400
v 0.337300 0.194700 0.019800
v 0.152900 0.264800 0.020400
v 0.264800 0.152900 0.020400
v 0.194700 0.337300 0.019800
v 0.337300 0.194700 0.019800
v 0.152900 -0.264800 0.020400
v 0.135200 -0.234100 -0.013500
v 0.264800 -0.152900 0.020400
v 0.234100 -0.135200 -0.013500
v 0.305800 -0.000000 0.020400
v 0.270300 0.000000 -0.013500
v 0.264800 0.152900 0.020400
v 0.234100 0.135200 -0.013500
v 0.152900 0.264800 0.020400
v 0.135200 0.234100 -0.013500
v 0.135200 -0.234100 -0.013500
v 0.234100 -0.135200 -0.013500
v 0.270300 0.000000 -0.013500
v 0.234100 0.135200 -0.013500
v 0.135200 0.234100 -0.013500
v 0.194700 0.337300 0.019800
v 0.337300 0.194700 0.019800
v 0.194700 0.337300 -0.091700
v 0.337300 0.194700 -0.091700
v 0.000000 0.389500 0.019800
v 0.000000 0.389500 -0.091700
v 0.194700 -0.337300 0.019800
v 0.000000 -0.389500 0.019800
v 0.194700 -0.337300 -0.091700
v 0.000000 -0.389500 -0.091700
v 0.337300 -0.194700 0.019800
v 0.337300 -0.194700 -0.091700
v 0.389500 -0.000000 0.019800
v 0.389500 0.000000 -0.091700
v -0.152900 -0.264800 -0.091700
v 0.000000 -0.305800 -0.091700
v -0.194700 -0.337300 -0.091700
v 0.000000 -0.389500 -0.091700
v -0.264800 -0.152900 -0.091700
v -0.337300 -0.194700 -0.091700
v -0.305800 0.000000 -0.091700
v -0.264800 -0.152900 -0.091700
v -0.389500 0.000000 -0.091700
v -0.337300 -0.194700 -0.091700
v -0.264800 0.152900 -0.091700
v -0.337300 0.194700 -0.091700
v -0.152900 0.264800 -0.091700
v -0.264800 0.152900 -0.091700
v -0.194700 0.337300 -0.091700
v -0.337300 0.194700 -0.091700
v 0.000000 0.305800 -0.091700
v 0.000000 0.389500 -0.091700
v -0.194700 0.337300 0.019800
v -0.194700 0.337300 -0.091700
v -0.337300 0.194700 0.019800
v -0.337300 0.194700 -0.091700
v -0.194700 -0.337300 0.019800
v -0.194700 -0.337300 -0.091700
v -0.337300 -0.194700 0.019800
v -0.337300 -0.194700 -0.091700
v -0.389500 -0.000000 0.019800
v -0.389500 0.000000 -0.091700
v 0.152900 -0.264800 -0.091700
v 0.194700 -0.337300 -0.091700
v 0.264800 -0.152900 -0.091700
v 0.337300 -0.194700 -0.091700
v 0.305800 0.000000 -0.091700
v 0.389500 0.000000 -0.091700
v 0.264800 -0.152900 -0.091700
v 0.337300 -0.194700 -0.091700
v 0.264800 0.152900 -0.091700
v 0.337300 0.194700 -0.091700
v 0.152900 0.264800 -0.091700
v 0.194700 0.337300 -0.091700
v 0.264800 0.152900 -0.091700
v 0.337300 0.194700 -0.091700
v 0.000000 -0.305800 -0.087100
v -0.152900 -0.264800 -0.087100
v 0.000000 0.305800 -0.087100
v 0.152900 0.264800 -0.087100
v 0.264800 0.152900 -0.087100
v 0.264800 -0.152900 -0.087100
v -0.264800 -0.152900 -0.087100
v -0.152900 0.264800 -0.087100
v -0.264800 0.152900 -0.087100
v -0.305800 0.000000 -0.087100
v 0.152900 -0.264800 -0.087100
v 0.305800 0.000000 -0.087100
v 0.219900 -0.127000 -0.009000
v 0.220900 -0.047600 0.000500
v 0.165100 -0.095300 0.051500
v 0.153600 -0.008700 0.019600
v 0.085400 -0.049300 0.029200
v 0.084400 -0.128700 0.019600
v 0.151600 -0.167500 0.000500
v -0.219900 -0.127000 -0.009000
v -0.151600 -0.167500 0.000500
v -0.165100 -0.095300 0.051500
v -0.084400 -0.128700 0.019600
v -0.085400 -0.049300 0.029200
v -0.153600 -0.008700 0.019600
v -0.220900 -0.047600 0.000500
v 0.000000 0.253900 -0.009000
v -0.069300 0.215100 0.000500
v 0.000000 0.190700 0.051500
v -0.069300 0.137400 0.019600
v 0.000000 0.098600 0.029200
v 0.069300 0.137400 0.019600
v 0.069300 0.215100 0.000500
v -0.162600 0.093900 0.005900
v 0.000000 -0.187800 0.005900
v -0.162600 0.093900 0.042900
v 0.000000 -0.187800 0.042900
v 0.000000 -0.187800 0.005900
v 0.162600 0.093900 0.005900
v 0.000000 -0.187800 0.042900
v 0.162600 0.093900 0.042900
v 0.162600 0.093900 0.005900
v -0.162600 0.093900 0.005900
v 0.162600 0.093900 0.042900
v -0.162600 0.093900 0.042900
v -0.162600 0.093900 0.042900
v 0.000000 -0.187800 0.042900
v 0.000000 -0.000000 0.108900
v 0.000000 -0.187800 0.042900
v 0.162600 0.093900 0.042900
v 0.000000 -0.000000 0.108900
v 0.162600 0.093900 0.042900
v -0.162600 0.093900 0.042900
v 0.000000 -0.000000 0.108900
v -0.305800 0.000000 -0.091700
v 0.000000 -0.000000 0.019800
v -0.264800 -0.152900 -0.091700
v 0.264800 -0.152900 -0.091700
v 0.152900 -0.264800 -0.091700
v -0.152900 0.264800 -0.091700
v 0.000000 0.305800 -0.091700
v 0.305800 0.000000 -0.091700
v 0.000000 -0.305800 -0.091700
v -0.152900 -0.264800 -0.091700
v -0.264800 0.152900 -0.091700
v 0.264800 0.152900 -0.091700
v 0.152900 0.264800 -0.091700
vt 0.440000 0.190000
vt 0.440000 0.060000
vt 0.500000 0.130000
vt 0.500000 0.190000
vt 0.500000 0.030000
vt 0.440000 0.250000
vt 0.500000 0.380000
vt 0.500000 0.160000
vt 0.500000 0.250000
vt 0.030000 0.970000
vt 0.030000 0.470000
vt 0.310000 0.970000
vt 0.310000 0.470000
vt 0.030000 0.030000
vt 0.310000 0.030000
vt 0.380000 0.970000
vt 0.380000 0.470000
vt 0.660000 0.970000
vt 0.660000 0.470000
vt 0.380000 0.030000
vt 0.380000 0.060000
vt 0.380000 0.130000
vt 0.380000 0.220000
vt 0.380000 0.280000
vt 0.380000 0.380000
vt 0.560000 0.030000
vt 0.560000 0.190000
vt 0.560000 0.090000
vt 0.560000 0.310000
vt 0.560000 0.380000
vt 0.440000 0.380000
vt 0.440000 0.280000
vt 0.440000 0.220000
vt 0.440000 0.130000
vt 0.440000 0.030000
vt 0.630000 0.030000
vt 0.630000 0.060000
vt 0.630000 0.380000
vt 0.630000 0.340000
vt 0.630000 0.130000
vt 0.630000 0.280000
vt 0.630000 0.190000
vt 0.720000 0.220000
vt 0.910000 0.220000
vt 0.810000 0.410000
vt 0.660000 0.410000
vt 0.970000 0.410000
vt 0.970000 0.220000
vt 0.780000 0.810000
vt 0.970000 0.940000
vt 0.840000 0.940000
vt 0.840000 0.840000
vt 0.840000 0.970000
vt 0.780000 0.970000
vt 0.780000 0.840000
vt 0.720000 0.970000
vt 0.720000 0.840000
vt 0.560000 0.130000
vn -0.865900 0.500100 0.000000
vn 0.000000 -1.000000 0.000000
vn 0.865900 0.500100 0.000000
vn 0.866100 0.499900 -0.000000
vn -0.000000 0.000000 -1.000000
vn -0.866100 0.499900 -0.000000
vn -0.001900 -0.007200 1.000000
vn 0.001900 -0.007200 1.000000
vn 0.005200 -0.005200 1.000000
vn -0.005200 -0.005200 1.000000
vn -0.007200 -0.001900 1.000000
vn -0.007200 0.001900 1.000000
vn -0.005200 0.005200 1.000000
vn -0.001900 0.007200 1.000000
vn 0.001900 0.007200 1.000000
vn 0.005200 0.005200 1.000000
vn 0.182100 0.679100 0.711100
vn -0.182100 0.679100 0.711100
vn -0.182000 0.679700 0.710600
vn -0.497600 0.497600 0.710500
vn -0.679600 0.182200 0.710600
vn -0.679100 0.181800 0.711200
vn -0.679100 -0.182100 0.711100
vn -0.679700 -0.182000 0.710600
vn -0.497600 -0.497600 0.710500
vn -0.182200 -0.679600 0.710600
vn -0.181800 -0.679100 0.711200
vn 0.181800 -0.679100 0.711200
vn 0.182200 -0.679600 0.710600
vn 0.497600 -0.497600 0.710500
vn 0.679700 -0.182000 0.710600
vn 0.679100 -0.182100 0.711100
vn 0.679100 0.181800 0.711200
vn 0.679600 0.182200 0.710600
vn 0.497600 0.497600 0.710500
vn 0.182000 0.679700 0.710600
vn -0.064500 -0.240800 0.968400
vn 0.064500 -0.240800 0.968400
vn 0.176200 -0.176200 0.968400
vn 0.240800 -0.064500 0.968400
vn 0.240800 0.064500 0.968400
vn 0.176200 0.176200 0.968400
vn 0.064500 0.240800 0.968400
vn -0.064500 0.240800 0.968400
vn -0.176200 0.176200 0.968400
vn -0.240800 0.064500 0.968400
vn -0.240800 -0.064500 0.968400
vn -0.176200 -0.176200 0.968400
vn 0.007200 -0.001900 1.000000
vn 0.007200 0.001900 1.000000
vn 0.707100 0.707100 0.000000
vn 0.259000 0.965900 0.000000
vn -0.259000 0.965900 0.000000
vn -0.707100 0.707100 0.000000
vn -0.965900 0.259000 0.000000
vn -0.965900 -0.259000 -0.000000
vn -0.707100 -0.707100 -0.000000
vn -0.259000 -0.965900 -0.000000
vn 0.259000 -0.965900 -0.000000
vn 0.707100 -0.707100 -0.000000
vn 0.965900 -0.259000 -0.000000
vn 0.965900 0.259000 0.000000
vn 0.713500 -0.092100 0.694600
vn 0.435900 -0.572200 0.694700
vn -0.091600 -0.563000 0.821300
vn -0.325900 -0.109400 0.939000
vn -0.068300 0.336800 0.939100
vn 0.441800 0.361200 0.821200
vn -0.435900 -0.572200 0.694700
vn -0.713500 -0.092100 0.694600
vn -0.441800 0.361200 0.821200
vn 0.068300 0.336800 0.939100
vn 0.325900 -0.109400 0.939000
vn 0.091600 -0.563000 0.821300
vn -0.276900 0.664500 0.694100
vn 0.276900 0.664500 0.694100
vn 0.533400 0.201900 0.821400
vn 0.257400 -0.227400 0.939200
vn -0.257400 -0.227400 0.939200
vn -0.533400 0.201900 0.821400
vn -0.866100 -0.499900 0.000000
vn 0.866100 -0.499900 0.000000
vn 0.000000 1.000000 0.000000
vn -0.498100 -0.287500 0.818100
vn 0.498100 -0.287500 0.818100
vn -0.000000 0.575000 0.818100
vn 0.341100 0.091500 -0.935600
vn 0.341100 -0.091500 -0.935600
vn 0.249700 -0.249700 -0.935600
vn 0.091500 -0.341100 -0.935600
vn -0.091500 -0.341100 -0.935600
vn -0.249700 -0.249700 -0.935600
vn -0.341100 -0.091500 -0.935600
vn -0.341100 0.091500 -0.935600
vn -0.249700 0.249700 -0.935600
vn -0.091500 0.341100 -0.935600
vn 0.091500 0.341100 -0.935600
vn 0.249700 0.249700 -0.935600
usemtl material-030D38E8
s off
f 1/1/1 2/1/1 3/1/1
f 3/1/1 2/1/1 4/1/1
f 5/2/2 6/2/2 7/2/2
f 32/2/2 5/2/2 7/2/2
f 31/2/2 5/2/2 32/2/2
f 7/2/2 6/2/2 8/2/2
f 9/3/3 10/3/3 11/3/3
f 11/3/3 10/3/3 12/3/3
f 10/3/4 24/3/4 12/3/4
f 12/3/4 24/3/4 25/3/4
f 13/4/5 14/5/5 15/5/5
f 37/4/5 15/5/5 38/5/5
f 16/6/6 17/6/6 18/6/6
f 18/6/6 17/6/6 19/6/6
f 17/6/1 29/6/1 19/6/1
f 19/6/1 29/6/1 30/6/1
f 20/2/2 21/2/2 22/2/2
f 22/2/2 21/2/2 23/2/2
f 26/7/5 27/8/5 28/8/5
f 33/9/3 34/9/3 35/9/3
f 35/9/3 34/9/3 36/9/3
f 39/10/7 40/11/7 41/12/7
f 41/12/8 80/11/8 39/10/8
f 79/13/8 80/11/8 41/12/8
f 79/13/9 82/14/9 80/11/9
f 81/15/9 82/14/9 79/13/9
f 41/12/7 40/11/7 42/13/7
f 40/11/10 43/14/10 42/13/10
f 42/13/10 43/14/10 44/15/10
f 45/16/11 46/17/11 47/18/11
f 47/18/11 46/17/11 48/19/11
f 46/17/12 50/18/12 48/19/12
f 49/16/12 50/18/12 46/17/12
f 51/11/13 52/13/13 53/14/13
f 51/11/14 56/12/14 52/13/14
f 55/10/14 56/12/14 51/11/14
f 55/10/15 89/11/15 56/12/15
f 56/12/15 89/11/15 91/13/15
f 89/11/16 90/14/16 91/13/16
f 91/13/16 90/14/16 92/15/16
f 53/14/13 52/13/13 54/15/13
f 57/20/17 58/21/17 59/21/17
f 57/20/18 93/21/18 58/21/18
f 58/21/19 93/21/19 94/21/19
f 93/21/20 95/22/20 94/21/20
f 94/21/20 95/22/20 96/22/20
f 95/22/21 97/23/21 96/22/21
f 96/22/22 97/23/22 98/23/22
f 97/23/23 99/24/23 98/23/23
f 98/23/24 99/24/24 100/24/24
f 99/24/25 101/25/25 100/24/25
f 100/24/25 101/25/25 102/25/25
f 101/25/26 69/25/26 102/25/26
f 102/25/27 69/25/27 70/25/27
f 69/25/28 68/25/28 70/25/28
f 67/25/29 68/25/29 69/25/29
f 67/25/30 66/24/30 68/25/30
f 65/24/30 66/24/30 67/25/30
f 65/24/31 64/23/31 66/24/31
f 63/23/32 64/23/32 65/24/32
f 63/23/33 62/22/33 64/23/33
f 61/22/34 62/22/34 63/23/34
f 61/22/35 60/21/35 62/22/35
f 59/21/35 60/21/35 61/22/35
f 59/21/36 58/21/36 60/21/36
f 71/26/37 72/27/37 73/26/37
f 71/26/38 103/26/38 72/27/38
f 103/26/39 104/28/39 72/27/39
f 104/28/40 105/27/40 72/27/40
f 105/27/41 106/29/41 72/27/41
f 106/29/42 107/30/42 72/27/42
f 107/30/43 78/30/43 72/27/43
f 77/30/44 72/27/44 78/30/44
f 76/29/45 72/27/45 77/30/45
f 75/27/46 72/27/46 76/29/46
f 74/28/47 72/27/47 75/27/47
f 73/26/48 72/27/48 74/28/48
f 83/19/49 84/17/49 85/18/49
f 88/18/50 84/17/50 83/19/50
f 87/16/50 84/17/50 88/18/50
f 85/18/49 84/17/49 86/16/49
f 108/31/51 109/32/51 110/31/51
f 113/31/52 108/31/52 110/31/52
f 112/31/52 108/31/52 113/31/52
f 112/31/53 113/31/53 140/31/53
f 140/31/53 113/31/53 141/31/53
f 140/31/54 141/31/54 142/32/54
f 142/32/54 141/31/54 143/32/54
f 142/32/55 143/32/55 148/33/55
f 148/33/55 143/32/55 149/33/55
f 148/33/56 149/33/56 146/34/56
f 146/34/56 149/33/56 147/34/56
f 146/34/57 147/34/57 144/2/57
f 144/2/57 147/34/57 145/2/57
f 144/2/58 145/2/58 115/35/58
f 115/35/58 145/2/58 117/35/58
f 116/2/59 115/35/59 117/35/59
f 114/2/59 115/35/59 116/2/59
f 119/34/60 114/2/60 116/2/60
f 118/34/60 114/2/60 119/34/60
f 121/33/61 118/34/61 119/34/61
f 120/33/61 118/34/61 121/33/61
f 111/32/62 120/33/62 121/33/62
f 109/32/62 120/33/62 111/32/62
f 110/31/51 109/32/51 111/32/51
f 122/11/5 123/10/5 124/13/5
f 127/15/5 122/11/5 124/13/5
f 126/14/5 122/11/5 127/15/5
f 124/13/5 123/10/5 125/12/5
f 123/10/5 151/13/5 125/12/5
f 150/11/5 151/13/5 123/10/5
f 150/11/5 153/15/5 151/13/5
f 152/14/5 153/15/5 150/11/5
f 128/17/5 129/16/5 130/19/5
f 133/18/5 128/17/5 130/19/5
f 132/16/5 128/17/5 133/18/5
f 130/19/5 129/16/5 131/18/5
f 134/11/5 135/14/5 136/13/5
f 139/12/5 134/11/5 136/13/5
f 138/10/5 134/11/5 139/12/5
f 138/10/5 139/12/5 160/11/5
f 160/11/5 139/12/5 161/13/5
f 160/11/5 161/13/5 162/14/5
f 162/14/5 161/13/5 163/15/5
f 136/13/5 135/14/5 137/15/5
f 154/17/5 155/19/5 156/16/5
f 154/17/5 159/18/5 155/19/5
f 158/16/5 159/18/5 154/17/5
f 156/16/5 155/19/5 157/18/5
f 164/36/5 165/37/5 166/38/5
f 174/37/5 164/36/5 166/38/5
f 167/39/5 174/37/5 166/38/5
f 167/39/5 169/40/5 174/37/5
f 167/39/5 168/41/5 169/40/5
f 168/41/5 175/42/5 169/40/5
f 165/37/5 170/40/5 171/39/5
f 165/37/5 171/39/5 166/38/5
f 170/40/5 172/41/5 171/39/5
f 170/40/5 173/42/5 172/41/5
f 176/43/63 177/44/63 178/45/63
f 182/46/64 176/43/64 178/45/64
f 181/43/65 182/46/65 178/45/65
f 180/44/66 181/43/66 178/45/66
f 179/47/67 180/44/67 178/45/67
f 177/44/68 179/47/68 178/45/68
f 183/43/69 184/46/69 185/45/69
f 189/44/70 183/43/70 185/45/70
f 188/47/71 189/44/71 185/45/71
f 187/44/72 188/47/72 185/45/72
f 186/43/73 187/44/73 185/45/73
f 184/46/74 186/43/74 185/45/74
f 190/47/75 191/44/75 192/45/75
f 196/44/76 190/47/76 192/45/76
f 195/43/77 196/44/77 192/45/77
f 194/46/78 195/43/78 192/45/78
f 193/43/79 194/46/79 192/45/79
f 191/44/80 193/43/80 192/45/80
f 197/48/81 198/48/81 199/48/81
f 199/48/81 198/48/81 200/48/81
f 201/49/82 202/49/82 203/49/82
f 203/49/82 202/49/82 204/49/82
f 205/50/83 206/50/83 207/50/83
f 207/50/83 206/50/83 208/50/83
f 209/51/84 210/52/84 211/53/84
f 212/54/85 213/55/85 214/55/85
f 215/56/86 216/56/86 217/57/86
f 218/58/87 219/26/87 220/58/87
f 228/58/88 219/26/88 218/58/88
f 228/58/89 223/58/89 219/26/89
f 219/26/90 223/58/90 224/58/90
f 230/58/91 219/26/91 224/58/91
f 229/58/92 219/26/92 230/58/92
f 225/58/93 219/26/93 229/58/93
f 221/58/94 219/26/94 225/58/94
f 221/58/95 222/58/95 219/26/95
f 219/26/96 222/58/96 226/58/96
f 227/58/97 219/26/97 226/58/97
f 220/58/98 219/26/98 227/58/98
