# Blender v2.75 (sub 0) OBJ File: ''
# www.blender.org
mtllib Spirit Medallion.mtl
o spiritmedal_geom-03C4ABCC
v 0.102000 0.035600 -0.094800
v 0.000000 -0.141000 -0.094800
v 0.102000 0.035600 -0.074900
v 0.000000 -0.141000 -0.074900
v 0.000000 -0.141000 -0.094800
v 0.204000 -0.141000 -0.094800
v 0.000000 -0.141000 -0.074900
v 0.204000 -0.141000 -0.074900
v 0.204000 -0.141000 -0.094800
v 0.102000 0.035600 -0.094800
v 0.204000 -0.141000 -0.074900
v 0.102000 0.035600 -0.074900
v 0.102000 0.035600 -0.094800
v 0.204000 -0.141000 -0.094800
v 0.000000 -0.141000 -0.094800
v 0.000000 0.212300 -0.094800
v -0.102000 0.035600 -0.094800
v 0.000000 0.212300 -0.074900
v -0.102000 0.035600 -0.074900
v -0.102000 0.035600 -0.094800
v 0.102000 0.035600 -0.094800
v -0.102000 0.035600 -0.074900
v 0.102000 0.035600 -0.074900
v 0.000000 0.212300 -0.094800
v 0.000000 0.212300 -0.074900
v 0.000000 0.212300 -0.094800
v 0.102000 0.035600 -0.094800
v -0.102000 0.035600 -0.094800
v -0.204000 -0.141000 -0.094800
v -0.204000 -0.141000 -0.074900
v -0.204000 -0.141000 -0.094800
v -0.204000 -0.141000 -0.074900
v 0.000000 -0.141000 -0.094800
v -0.102000 0.035600 -0.094800
v 0.000000 -0.141000 -0.074900
v -0.102000 0.035600 -0.074900
v -0.102000 0.035600 -0.094800
v -0.204000 -0.141000 -0.094800
v 0.000000 -0.305800 0.032600
v -0.152900 -0.264800 0.032600
v 0.000000 -0.389500 0.032000
v -0.194700 -0.337300 0.032000
v -0.264800 -0.152900 0.032600
v -0.337300 -0.194700 0.032000
v -0.264800 -0.152900 0.032600
v -0.305800 -0.000000 0.032600
v -0.337300 -0.194700 0.032000
v -0.389500 -0.000000 0.032000
v -0.264800 0.152900 0.032600
v -0.337300 0.194700 0.032000
v -0.152900 0.264800 0.032600
v -0.194700 0.337300 0.032000
v -0.264800 0.152900 0.032600
v -0.337300 0.194700 0.032000
v 0.000000 0.305800 0.032600
v 0.000000 0.389500 0.032000
v 0.000000 -0.305800 0.032600
v 0.000000 -0.270300 -0.001300
v -0.152900 -0.264800 0.032600
v -0.135200 -0.234100 -0.001300
v -0.264800 -0.152900 0.032600
v -0.234100 -0.135200 -0.001300
v -0.305800 -0.000000 0.032600
v -0.270300 0.000000 -0.001300
v -0.264800 0.152900 0.032600
v -0.234100 0.135200 -0.001300
v -0.152900 0.264800 0.032600
v -0.135200 0.234100 -0.001300
v 0.000000 0.305800 0.032600
v 0.000000 0.270300 -0.001300
v 0.000000 -0.270300 -0.001300
v 0.000000 -0.000000 0.065900
v -0.135200 -0.234100 -0.001300
v -0.234100 -0.135200 -0.001300
v -0.270300 0.000000 -0.001300
v -0.234100 0.135200 -0.001300
v -0.135200 0.234100 -0.001300
v 0.000000 0.270300 -0.001300
v 0.194700 -0.337300 0.032000
v 0.152900 -0.264800 0.032600
v 0.337300 -0.194700 0.032000
v 0.264800 -0.152900 0.032600
v 0.389500 -0.000000 0.032000
v 0.305800 -0.000000 0.032600
v 0.337300 -0.194700 0.032000
v 0.264800 -0.152900 0.032600
v 0.264800 0.152900 0.032600
v 0.337300 0.194700 0.032000
v 0.152900 0.264800 0.032600
v 0.264800 0.152900 0.032600
v 0.194700 0.337300 0.032000
v 0.337300 0.194700 0.032000
v 0.152900 -0.264800 0.032600
v 0.135200 -0.234100 -0.001300
v 0.264800 -0.152900 0.032600
v 0.234100 -0.135200 -0.001300
v 0.305800 -0.000000 0.032600
v 0.270300 0.000000 -0.001300
v 0.264800 0.152900 0.032600
v 0.234100 0.135200 -0.001300
v 0.152900 0.264800 0.032600
v 0.135200 0.234100 -0.001300
v 0.135200 -0.234100 -0.001300
v 0.234100 -0.135200 -0.001300
v 0.270300 0.000000 -0.001300
v 0.234100 0.135200 -0.001300
v 0.135200 0.234100 -0.001300
v 0.194700 0.337300 0.032000
v 0.337300 0.194700 0.032000
v 0.194700 0.337300 -0.079500
v 0.337300 0.194700 -0.079500
v 0.000000 0.389500 0.032000
v 0.000000 0.389500 -0.079500
v 0.194700 -0.337300 0.032000
v 0.000000 -0.389500 0.032000
v 0.194700 -0.337300 -0.079500
v 0.000000 -0.389500 -0.079500
v 0.337300 -0.194700 0.032000
v 0.337300 -0.194700 -0.079500
v 0.389500 -0.000000 0.032000
v 0.389500 0.000000 -0.079500
v -0.152900 -0.264800 -0.079500
v 0.000000 -0.305800 -0.079500
v -0.194700 -0.337300 -0.079500
v 0.000000 -0.389500 -0.079500
v -0.264800 -0.152900 -0.079500
v -0.337300 -0.194700 -0.079500
v -0.305800 0.000000 -0.079500
v -0.264800 -0.152900 -0.079500
v -0.389500 0.000000 -0.079500
v -0.337300 -0.194700 -0.079500
v -0.264800 0.152900 -0.079500
v -0.337300 0.194700 -0.079500
v -0.152900 0.264800 -0.079500
v -0.264800 0.152900 -0.079500
v -0.194700 0.337300 -0.079500
v -0.337300 0.194700 -0.079500
v 0.000000 0.305800 -0.079500
v 0.000000 0.389500 -0.079500
v -0.194700 0.337300 0.032000
v -0.194700 0.337300 -0.079500
v -0.337300 0.194700 0.032000
v -0.337300 0.194700 -0.079500
v -0.194700 -0.337300 0.032000
v -0.194700 -0.337300 -0.079500
v -0.337300 -0.194700 0.032000
v -0.337300 -0.194700 -0.079500
v -0.389500 -0.000000 0.032000
v -0.389500 0.000000 -0.079500
v 0.152900 -0.264800 -0.079500
v 0.194700 -0.337300 -0.079500
v 0.264800 -0.152900 -0.079500
v 0.337300 -0.194700 -0.079500
v 0.305800 0.000000 -0.079500
v 0.389500 0.000000 -0.079500
v 0.264800 -0.152900 -0.079500
v 0.337300 -0.194700 -0.079500
v 0.264800 0.152900 -0.079500
v 0.337300 0.194700 -0.079500
v 0.152900 0.264800 -0.079500
v 0.194700 0.337300 -0.079500
v 0.264800 0.152900 -0.079500
v 0.337300 0.194700 -0.079500
v 0.000000 -0.305800 -0.074900
v -0.152900 -0.264800 -0.074900
v 0.000000 0.305800 -0.074900
v 0.152900 0.264800 -0.074900
v 0.264800 0.152900 -0.074900
v 0.264800 -0.152900 -0.074900
v -0.264800 -0.152900 -0.074900
v -0.152900 0.264800 -0.074900
v -0.264800 0.152900 -0.074900
v -0.305800 0.000000 -0.074900
v 0.152900 -0.264800 -0.074900
v 0.305800 0.000000 -0.074900
v 0.182000 -0.047800 0.060300
v 0.119600 0.018200 0.080400
v 0.117900 -0.034700 0.035300
v 0.186400 -0.000400 0.065000
v 0.229500 0.056100 0.009300
v 0.191100 0.077600 0.056000
v 0.215100 -0.050000 0.011400
v 0.166900 -0.103700 0.049200
v 0.131700 -0.092200 0.030200
v 0.183300 -0.119500 0.010400
v 0.112600 -0.185700 0.011300
v 0.174900 0.133100 0.051400
v 0.204200 0.149900 0.003500
v 0.025000 0.175800 0.022600
v 0.068800 0.145500 0.070800
v 0.120200 0.205100 0.007500
v 0.125200 0.164000 0.060400
v 0.038100 -0.011100 0.060700
v 0.067900 0.043300 0.082700
v -0.014200 0.080400 0.051900
v 0.047100 0.092500 0.081500
v 0.164600 0.040700 0.072500
v 0.127500 0.097500 0.089400
v -0.179100 0.047800 0.070900
v -0.115600 -0.018200 0.087300
v -0.116600 0.034700 0.042200
v -0.183200 0.000400 0.075900
v -0.229500 -0.056100 0.022800
v -0.188400 -0.077600 0.067200
v -0.215000 0.050000 0.024100
v -0.164600 0.103700 0.058900
v -0.130700 0.092200 0.038000
v -0.183300 0.119500 0.021300
v -0.112700 0.185700 0.017900
v -0.172500 -0.133100 0.061600
v -0.204600 -0.149900 0.015600
v -0.024600 -0.175800 0.024100
v -0.065500 -0.145500 0.074700
v -0.120500 -0.205100 0.014600
v -0.122400 -0.164000 0.067700
v -0.035400 0.011100 0.062800
v -0.063900 -0.043300 0.086600
v 0.016300 -0.080400 0.051000
v -0.043200 -0.092500 0.084100
v -0.161000 -0.040700 0.082100
v -0.123000 -0.097500 0.096800
v -0.152900 -0.264800 -0.079500
v 0.000000 -0.000000 0.032000
v 0.000000 -0.305800 -0.079500
v 0.152900 -0.264800 -0.079500
v -0.152900 0.264800 -0.079500
v 0.000000 0.305800 -0.079500
v 0.305800 0.000000 -0.079500
v 0.264800 0.152900 -0.079500
v -0.264800 0.152900 -0.079500
v 0.152900 0.264800 -0.079500
v 0.264800 -0.152900 -0.079500
v -0.264800 -0.152900 -0.079500
v -0.305800 0.000000 -0.079500
vt 0.440000 0.190000
vt 0.440000 0.060000
vt 0.500000 0.130000
vt 0.500000 0.190000
vt 0.500000 0.030000
vt 0.440000 0.250000
vt 0.500000 0.380000
vt 0.500000 0.160000
vt 0.500000 0.250000
vt 0.030000 0.970000
vt 0.030000 0.470000
vt 0.310000 0.970000
vt 0.310000 0.470000
vt 0.030000 0.030000
vt 0.310000 0.030000
vt 0.380000 0.970000
vt 0.380000 0.470000
vt 0.660000 0.970000
vt 0.660000 0.470000
vt 0.380000 0.030000
vt 0.380000 0.060000
vt 0.380000 0.130000
vt 0.380000 0.220000
vt 0.380000 0.280000
vt 0.380000 0.380000
vt 0.560000 0.030000
vt 0.560000 0.190000
vt 0.560000 0.090000
vt 0.560000 0.310000
vt 0.560000 0.380000
vt 0.440000 0.380000
vt 0.440000 0.280000
vt 0.440000 0.220000
vt 0.440000 0.130000
vt 0.440000 0.030000
vt 0.630000 0.030000
vt 0.630000 0.060000
vt 0.630000 0.380000
vt 0.630000 0.340000
vt 0.630000 0.130000
vt 0.630000 0.280000
vt 0.630000 0.190000
vt 0.780000 0.440000
vt 0.840000 0.310000
vt 0.880000 0.410000
vt 0.780000 0.500000
vt 0.690000 0.410000
vt 0.720000 0.530000
vt 0.780000 0.630000
vt 0.840000 0.470000
vt 0.970000 0.280000
vt 0.910000 0.250000
vt 0.970000 0.190000
vt 0.910000 0.160000
vt 0.940000 0.060000
vt 0.880000 0.090000
vt 0.810000 0.030000
vt 0.810000 0.090000
vt 0.690000 0.090000
vt 0.750000 0.130000
vt 0.720000 0.220000
vt 0.810000 0.190000
vt 0.780000 0.280000
vt 0.720000 0.310000
vt 0.660000 0.220000
vt 0.560000 0.160000
vn -0.865900 0.500100 0.000000
vn 0.000000 -1.000000 0.000000
vn 0.865900 0.500100 -0.000000
vn 0.866100 0.499900 0.000000
vn 0.000000 0.000000 -1.000000
vn -0.866100 0.499900 -0.000000
vn -0.001900 -0.007200 1.000000
vn 0.001900 -0.007200 1.000000
vn 0.005200 -0.005200 1.000000
vn -0.005200 -0.005200 1.000000
vn -0.007200 -0.001900 1.000000
vn -0.007200 0.001900 1.000000
vn -0.005200 0.005200 1.000000
vn -0.001900 0.007200 1.000000
vn 0.001900 0.007200 1.000000
vn 0.005200 0.005200 1.000000
vn 0.182100 0.679100 0.711100
vn -0.182100 0.679100 0.711100
vn -0.182000 0.679700 0.710600
vn -0.497600 0.497600 0.710500
vn -0.679600 0.182200 0.710600
vn -0.679100 0.181800 0.711200
vn -0.679100 -0.182100 0.711100
vn -0.679700 -0.182000 0.710600
vn -0.497600 -0.497600 0.710500
vn -0.182200 -0.679600 0.710600
vn -0.181800 -0.679100 0.711200
vn 0.181800 -0.679100 0.711200
vn 0.182200 -0.679600 0.710600
vn 0.497600 -0.497600 0.710500
vn 0.679700 -0.182000 0.710600
vn 0.679100 -0.182100 0.711100
vn 0.679100 0.181800 0.711200
vn 0.679600 0.182200 0.710600
vn 0.497600 0.497600 0.710500
vn 0.182000 0.679700 0.710600
vn -0.064500 -0.240800 0.968400
vn 0.064500 -0.240800 0.968400
vn 0.176200 -0.176200 0.968400
vn 0.240800 -0.064500 0.968400
vn 0.240800 0.064500 0.968400
vn 0.176200 0.176200 0.968400
vn 0.064500 0.240800 0.968400
vn -0.064500 0.240800 0.968400
vn -0.176200 0.176200 0.968400
vn -0.240800 0.064500 0.968400
vn -0.240800 -0.064500 0.968400
vn -0.176200 -0.176200 0.968400
vn 0.007200 -0.001900 1.000000
vn 0.007200 0.001900 1.000000
vn 0.707100 0.707100 0.000000
vn 0.259000 0.965900 0.000000
vn -0.259000 0.965900 0.000000
vn -0.707100 0.707100 0.000000
vn -0.965900 0.259000 0.000000
vn -0.965900 -0.259000 -0.000000
vn -0.707100 -0.707100 -0.000000
vn -0.259000 -0.965900 -0.000000
vn 0.259000 -0.965900 -0.000000
vn 0.707100 -0.707100 -0.000000
vn 0.965900 -0.259000 -0.000000
vn 0.965900 0.259000 0.000000
vn -0.395300 -0.588500 0.705200
vn -0.376600 -0.081500 0.922800
vn 0.778500 -0.317800 0.541300
vn 0.792400 -0.369500 0.485400
vn 0.593000 -0.626500 0.505800
vn -0.492500 -0.074700 0.867100
vn -0.514800 -0.197600 0.834200
vn 0.049800 -0.648900 0.759200
vn -0.112900 -0.318800 0.941100
vn -0.404000 -0.144000 0.903400
vn -0.405800 -0.149600 0.901600
vn -0.460100 0.428000 0.777900
vn -0.555100 0.377000 0.741400
vn -0.141000 0.775400 0.615600
vn -0.140800 0.775300 0.615700
vn 0.490600 0.710000 0.505200
vn 0.511500 0.663800 0.545700
vn 0.774900 0.273400 0.569900
vn 0.506200 0.216900 0.834700
vn 0.476600 0.050200 0.877700
vn 0.449000 0.075700 0.890300
vn 0.777900 0.025600 0.627900
vn 0.834300 -0.102500 0.541600
vn 0.818200 -0.131500 0.559700
vn 0.192800 -0.114500 0.974500
vn 0.205800 -0.068900 0.976200
vn 0.235400 -0.132700 0.962800
vn -0.010100 -0.111800 0.993700
vn -0.096700 -0.016600 0.995200
vn -0.109700 0.239700 0.964600
vn 0.037400 0.400500 0.915500
vn 0.388100 0.379600 0.839800
vn 0.801200 0.249700 0.543800
vn 0.436000 0.588600 0.680800
vn 0.430000 0.081500 0.899200
vn -0.744700 0.319000 0.586200
vn -0.761200 0.368700 0.533500
vn -0.560800 0.625900 0.541900
vn 0.541800 0.075700 0.837100
vn 0.562000 0.196500 0.803500
vn -0.004500 0.648700 0.761000
vn 0.168000 0.319900 0.932400
vn 0.456600 0.144800 0.877800
vn 0.457600 0.148000 0.876700
vn 0.504300 -0.427700 0.750200
vn 0.597000 -0.376800 0.708200
vn 0.176700 -0.774900 0.606800
vn 0.177400 -0.775200 0.606300
vn -0.459800 -0.710100 0.533200
vn -0.478800 -0.662500 0.576100
vn -0.738900 -0.273800 0.615600
vn -0.456700 -0.217900 0.862500
vn -0.424400 -0.049900 0.904100
vn -0.395800 -0.075700 0.915200
vn -0.739800 -0.025700 0.672400
vn -0.801100 0.102300 0.589700
vn -0.783500 0.131800 0.607200
vn -0.134200 0.115400 0.984200
vn -0.147300 0.069300 0.986700
vn -0.177800 0.133400 0.975000
vn 0.068000 0.112400 0.991300
vn 0.156200 0.015500 0.987600
vn 0.167200 -0.240000 0.956300
vn 0.017600 -0.400700 0.916000
vn -0.339000 -0.379700 0.860800
vn -0.767900 -0.249100 0.590200
vn 0.091500 0.341100 -0.935600
vn 0.249700 0.249700 -0.935600
vn 0.341100 0.091500 -0.935600
vn 0.341100 -0.091500 -0.935600
vn 0.249700 -0.249700 -0.935600
vn 0.091500 -0.341100 -0.935600
vn -0.091500 -0.341100 -0.935600
vn -0.249700 -0.249700 -0.935600
vn -0.341100 -0.091500 -0.935600
vn -0.341100 0.091500 -0.935600
vn -0.249700 0.249700 -0.935600
vn -0.091500 0.341100 -0.935600
usemtl material-02A41316
s off
f 1/1/1 2/1/1 3/1/1
f 3/1/1 2/1/1 4/1/1
f 5/2/2 6/2/2 7/2/2
f 32/2/2 5/2/2 7/2/2
f 31/2/2 5/2/2 32/2/2
f 7/2/2 6/2/2 8/2/2
f 9/3/3 10/3/3 11/3/3
f 11/3/3 10/3/3 12/3/3
f 10/3/4 24/3/4 12/3/4
f 12/3/4 24/3/4 25/3/4
f 13/4/5 14/5/5 15/5/5
f 37/4/5 15/5/5 38/5/5
f 16/6/6 17/6/6 18/6/6
f 18/6/6 17/6/6 19/6/6
f 17/6/1 29/6/1 19/6/1
f 19/6/1 29/6/1 30/6/1
f 20/2/2 21/2/2 22/2/2
f 22/2/2 21/2/2 23/2/2
f 26/7/5 27/8/5 28/8/5
f 33/9/3 34/9/3 35/9/3
f 35/9/3 34/9/3 36/9/3
f 39/10/7 40/11/7 41/12/7
f 41/12/8 80/11/8 39/10/8
f 79/13/8 80/11/8 41/12/8
f 79/13/9 82/14/9 80/11/9
f 81/15/9 82/14/9 79/13/9
f 41/12/7 40/11/7 42/13/7
f 40/11/10 43/14/10 42/13/10
f 42/13/10 43/14/10 44/15/10
f 45/16/11 46/17/11 47/18/11
f 47/18/11 46/17/11 48/19/11
f 46/17/12 50/18/12 48/19/12
f 49/16/12 50/18/12 46/17/12
f 51/11/13 52/13/13 53/14/13
f 51/11/14 56/12/14 52/13/14
f 55/10/14 56/12/14 51/11/14
f 55/10/15 89/11/15 56/12/15
f 56/12/15 89/11/15 91/13/15
f 89/11/16 90/14/16 91/13/16
f 91/13/16 90/14/16 92/15/16
f 53/14/13 52/13/13 54/15/13
f 57/20/17 58/21/17 59/21/17
f 57/20/18 93/21/18 58/21/18
f 58/21/19 93/21/19 94/21/19
f 93/21/20 95/22/20 94/21/20
f 94/21/20 95/22/20 96/22/20
f 95/22/21 97/23/21 96/22/21
f 96/22/22 97/23/22 98/23/22
f 97/23/23 99/24/23 98/23/23
f 98/23/24 99/24/24 100/24/24
f 99/24/25 101/25/25 100/24/25
f 100/24/25 101/25/25 102/25/25
f 101/25/26 69/25/26 102/25/26
f 102/25/27 69/25/27 70/25/27
f 69/25/28 68/25/28 70/25/28
f 67/25/29 68/25/29 69/25/29
f 67/25/30 66/24/30 68/25/30
f 65/24/30 66/24/30 67/25/30
f 65/24/31 64/23/31 66/24/31
f 63/23/32 64/23/32 65/24/32
f 63/23/33 62/22/33 64/23/33
f 61/22/34 62/22/34 63/23/34
f 61/22/35 60/21/35 62/22/35
f 59/21/35 60/21/35 61/22/35
f 59/21/36 58/21/36 60/21/36
f 71/26/37 72/27/37 73/26/37
f 71/26/38 103/26/38 72/27/38
f 103/26/39 104/28/39 72/27/39
f 104/28/40 105/27/40 72/27/40
f 105/27/41 106/29/41 72/27/41
f 106/29/42 107/30/42 72/27/42
f 107/30/43 78/30/43 72/27/43
f 77/30/44 72/27/44 78/30/44
f 76/29/45 72/27/45 77/30/45
f 75/27/46 72/27/46 76/29/46
f 74/28/47 72/27/47 75/27/47
f 73/26/48 72/27/48 74/28/48
f 83/19/49 84/17/49 85/18/49
f 88/18/50 84/17/50 83/19/50
f 87/16/50 84/17/50 88/18/50
f 85/18/49 84/17/49 86/16/49
f 108/31/51 109/32/51 110/31/51
f 113/31/52 108/31/52 110/31/52
f 112/31/52 108/31/52 113/31/52
f 112/31/53 113/31/53 140/31/53
f 140/31/53 113/31/53 141/31/53
f 140/31/54 141/31/54 142/32/54
f 142/32/54 141/31/54 143/32/54
f 142/32/55 143/32/55 148/33/55
f 148/33/55 143/32/55 149/33/55
f 148/33/56 149/33/56 146/34/56
f 146/34/56 149/33/56 147/34/56
f 146/34/57 147/34/57 144/2/57
f 144/2/57 147/34/57 145/2/57
f 144/2/58 145/2/58 115/35/58
f 115/35/58 145/2/58 117/35/58
f 116/2/59 115/35/59 117/35/59
f 114/2/59 115/35/59 116/2/59
f 119/34/60 114/2/60 116/2/60
f 118/34/60 114/2/60 119/34/60
f 121/33/61 118/34/61 119/34/61
f 120/33/61 118/34/61 121/33/61
f 111/32/62 120/33/62 121/33/62
f 109/32/62 120/33/62 111/32/62
f 110/31/51 109/32/51 111/32/51
f 122/11/5 123/10/5 124/13/5
f 127/15/5 122/11/5 124/13/5
f 126/14/5 122/11/5 127/15/5
f 124/13/5 123/10/5 125/12/5
f 123/10/5 151/13/5 125/12/5
f 150/11/5 151/13/5 123/10/5
f 150/11/5 153/15/5 151/13/5
f 152/14/5 153/15/5 150/11/5
f 128/17/5 129/16/5 130/19/5
f 133/18/5 128/17/5 130/19/5
f 132/16/5 128/17/5 133/18/5
f 130/19/5 129/16/5 131/18/5
f 134/11/5 135/14/5 136/13/5
f 139/12/5 134/11/5 136/13/5
f 138/10/5 134/11/5 139/12/5
f 138/10/5 139/12/5 160/11/5
f 160/11/5 139/12/5 161/13/5
f 160/11/5 161/13/5 162/14/5
f 162/14/5 161/13/5 163/15/5
f 136/13/5 135/14/5 137/15/5
f 154/17/5 155/19/5 156/16/5
f 154/17/5 159/18/5 155/19/5
f 158/16/5 159/18/5 154/17/5
f 156/16/5 155/19/5 157/18/5
f 164/36/5 165/37/5 166/38/5
f 174/37/5 164/36/5 166/38/5
f 167/39/5 174/37/5 166/38/5
f 167/39/5 169/40/5 174/37/5
f 167/39/5 168/41/5 169/40/5
f 168/41/5 175/42/5 169/40/5
f 165/37/5 170/40/5 171/39/5
f 165/37/5 171/39/5 166/38/5
f 170/40/5 172/41/5 171/39/5
f 170/40/5 173/42/5 172/41/5
f 176/43/63 177/44/63 178/45/63
f 176/43/64 178/45/64 183/46/64
f 183/46/65 182/47/65 176/43/65
f 185/48/66 182/47/66 183/46/66
f 185/48/67 183/46/67 186/49/67
f 183/46/68 184/50/68 186/49/68
f 183/46/69 178/45/69 184/50/69
f 178/45/70 177/44/70 193/51/70
f 193/51/71 177/44/71 194/52/71
f 193/51/72 194/52/72 195/53/72
f 195/53/73 194/52/73 196/54/73
f 195/53/74 196/54/74 189/55/74
f 189/55/75 196/54/75 190/56/75
f 189/55/76 190/56/76 191/57/76
f 191/57/77 190/56/77 192/58/77
f 191/57/78 192/58/78 188/59/78
f 188/59/79 192/58/79 187/60/79
f 187/60/80 181/61/80 188/59/80
f 181/61/81 187/60/81 198/62/81
f 197/63/82 181/61/82 198/62/82
f 179/64/83 181/61/83 197/63/83
f 179/64/84 180/65/84 181/61/84
f 179/64/85 182/47/85 180/65/85
f 182/47/86 179/64/86 176/43/86
f 177/44/87 176/43/87 179/64/87
f 177/44/88 179/64/88 197/63/88
f 177/44/89 197/63/89 198/62/89
f 194/52/90 177/44/90 198/62/90
f 196/54/91 194/52/91 198/62/91
f 190/56/92 196/54/92 198/62/92
f 192/58/93 190/56/93 198/62/93
f 187/60/94 192/58/94 198/62/94
f 188/59/95 181/61/95 180/65/95
f 199/43/96 200/44/96 201/45/96
f 199/43/97 201/45/97 206/46/97
f 206/46/98 205/47/98 199/43/98
f 208/48/99 205/47/99 206/46/99
f 208/48/100 206/46/100 209/49/100
f 206/46/101 207/50/101 209/49/101
f 206/46/102 201/45/102 207/50/102
f 201/45/103 200/44/103 216/51/103
f 216/51/104 200/44/104 217/52/104
f 216/51/105 217/52/105 218/53/105
f 218/53/106 217/52/106 219/54/106
f 218/53/107 219/54/107 212/55/107
f 212/55/108 219/54/108 213/56/108
f 212/55/109 213/56/109 214/57/109
f 214/57/110 213/56/110 215/58/110
f 214/57/111 215/58/111 211/59/111
f 211/59/112 215/58/112 210/60/112
f 210/60/113 204/61/113 211/59/113
f 204/61/114 210/60/114 221/62/114
f 220/63/115 204/61/115 221/62/115
f 202/64/116 204/61/116 220/63/116
f 202/64/117 203/65/117 204/61/117
f 202/64/118 205/47/118 203/65/118
f 205/47/119 202/64/119 199/43/119
f 200/44/120 199/43/120 202/64/120
f 200/44/121 202/64/121 220/63/121
f 200/44/122 220/63/122 221/62/122
f 217/52/123 200/44/123 221/62/123
f 219/54/124 217/52/124 221/62/124
f 213/56/125 219/54/125 221/62/125
f 215/58/126 213/56/126 221/62/126
f 210/60/127 215/58/127 221/62/127
f 211/59/128 204/61/128 203/65/128
f 222/66/129 223/26/129 224/66/129
f 233/66/130 223/26/130 222/66/130
f 234/66/131 223/26/131 233/66/131
f 230/66/132 223/26/132 234/66/132
f 230/66/133 226/66/133 223/26/133
f 223/26/134 226/66/134 227/66/134
f 231/66/135 223/26/135 227/66/135
f 229/66/136 223/26/136 231/66/136
f 228/66/137 223/26/137 229/66/137
f 232/66/138 223/26/138 228/66/138
f 232/66/139 225/66/139 223/26/139
f 223/26/140 225/66/140 224/66/140
